# xmcd
#
# Track frame offsets:
#	150
#	4513
#	6775
#	8783
#	10916
#	15669
#	19495
#	22942
#	25211
#	26802
#	28704
#	30631
#	32546
#	34424
#	36855
#	39780
#	42313
#	44066
#	45643
#	48802
#	51510
#	54635
#	56592
#	58916
#	61652
#	64505
#	66556
#	68952
#	70603
#	72658
#	75727
#	82671
#	84869
#	86829
#	88432
#	90259
#	92283
#	94101
#	96859
#	99797
#	103682
#	108195
#	109817
#	111347
#	113036
#	114480
#	116304
#	120969
#	126783
#	128757
#	130146
#	131809
#	133676
#	138407
#	143731
#	145731
#	147626
#	149669
#	151693
#	154291
#	157885
#	163106
#	165238
#	166808
#	169793
#	173336
#	175202
#	177104
#	178569
#	180393
#	185682
#	190294
#	192397
#	194084
#	195947
#	198514
#	202315
#	204849
#	207231
#	212284
#	214426
#	216632
#	218583
#	220696
#	222548
#	224757
#	226671
#	228936
#	231019
#	233250
#
# Disc length: 3144 seconds
#
# Revision: 1
# Processed by: cddbd v1.5.1PL0 Copyright (c) Steve Scherf et al.
# Submitted via: CDex 1.50Beta5
#
DISCID=f20c465a
DTITLE=ALC - Mini Phrase
DYEAR=1900
DGENRE=English
TTITLE0=1.電話でアポイント
TTITLE1=1.電話でアポイント
TTITLE2=1.電話でアポイント
TTITLE3=1.電話でアポイント
TTITLE4=1.電話でアポイントSKIT1
TTITLE5=1.電話でアポイントSKIT2
TTITLE6=1.電話でアポイントSKIT3
TTITLE7=m08
TTITLE8=m09
TTITLE9=m10
TTITLE10=m11
TTITLE11=m12
TTITLE12=m13
TTITLE13=m14
TTITLE14=m15
TTITLE15=m16
TTITLE16=m17
TTITLE17=m18
TTITLE18=m19
TTITLE19=m20
TTITLE20=m21
TTITLE21=m22
TTITLE22=m23
TTITLE23=m24
TTITLE24=m25
TTITLE25=m26
TTITLE26=m27
TTITLE27=m28
TTITLE28=m29
TTITLE29=m30
TTITLE30=5.交渉
TTITLE31=5.交渉
TTITLE32=5.交渉
TTITLE33=5.交渉
TTITLE34=5.交渉
TTITLE35=5.交渉
TTITLE36=5.交渉SKIT1
TTITLE37=5.交渉SKIT2
TTITLE38=5.交渉SKIT3
TTITLE39=6.会議
TTITLE40=6.会議
TTITLE41=6.会議
TTITLE42=6.会議
TTITLE43=6.会議
TTITLE44=6.会議
TTITLE45=6.会議SKIT1
TTITLE46=6.会議SKIT2
TTITLE47=7.職場のコミュニケーション
TTITLE48=7.職場のコミュニケーション
TTITLE49=m50
TTITLE50=7.職場のコミュニケーションSKIT1
TTITLE51=7.職場のコミュニケーションSKIT2
TTITLE52=8.問い合わせ・クレーム処理
TTITLE53=8.問い合わせ・クレーム処理
TTITLE54=8.問い合わせ・クレーム処理
TTITLE55=8.問い合わせ・クレーム処理
TTITLE56=8.問い合わせ・クレーム処理SKIT1
TTITLE57=8.問い合わせ・クレーム処理SKIT2
TTITLE58=8.問い合わせ・クレーム処理SKIT3
TTITLE59=m60
TTITLE60=m61
TTITLE61=m62
TTITLE62=m63
TTITLE63=10.パーティー
TTITLE64=10.パーティー
TTITLE65=10.パーティー
TTITLE66=10.パーティー
TTITLE67=10.パーティーSKIT1
TTITLE68=10.パーティーSKIT2
TTITLE69=m70
TTITLE70=m71
TTITLE71=m72
TTITLE72=m73
TTITLE73=m74
TTITLE74=m75
TTITLE75=12.別れ
TTITLE76=12.別れSKIT
TTITLE77=m78
TTITLE78=m79
TTITLE79=m80
TTITLE80=m81
TTITLE81=m82
TTITLE82=m83
TTITLE83=m84
TTITLE84=m85
TTITLE85=m86
TTITLE86=m87
TTITLE87=m88
TTITLE88=m89
TTITLE89=m90
EXTD=
EXTT0=
EXTT1=
EXTT2=
EXTT3=
EXTT4=
EXTT5=
EXTT6=
EXTT7=
EXTT8=
EXTT9=
EXTT10=
EXTT11=
EXTT12=
EXTT13=
EXTT14=
EXTT15=
EXTT16=
EXTT17=
EXTT18=
EXTT19=
EXTT20=
EXTT21=
EXTT22=
EXTT23=
EXTT24=
EXTT25=
EXTT26=
EXTT27=
EXTT28=
EXTT29=
EXTT30=
EXTT31=
EXTT32=
EXTT33=
EXTT34=
EXTT35=
EXTT36=
EXTT37=
EXTT38=
EXTT39=
EXTT40=
EXTT41=
EXTT42=
EXTT43=
EXTT44=
EXTT45=
EXTT46=
EXTT47=
EXTT48=
EXTT49=
EXTT50=
EXTT51=
EXTT52=
EXTT53=
EXTT54=
EXTT55=
EXTT56=
EXTT57=
EXTT58=
EXTT59=
EXTT60=
EXTT61=
EXTT62=
EXTT63=
EXTT64=
EXTT65=
EXTT66=
EXTT67=
EXTT68=
EXTT69=
EXTT70=
EXTT71=
EXTT72=
EXTT73=
EXTT74=
EXTT75=
EXTT76=
EXTT77=
EXTT78=
EXTT79=
EXTT80=
EXTT81=
EXTT82=
EXTT83=
EXTT84=
EXTT85=
EXTT86=
EXTT87=
EXTT88=
EXTT89=
PLAYORDER=
